<svg xmlns="http://www.w3.org/2000/svg" width="1200" height="400" viewBox="0 0 1200 400">
<rect width="100%" height="100%" fill="#000000"/>
<svg xmlns="http://www.w3.org/2000/svg" width="220" height="220" x="60" y="90" viewBox="0 0 320 320">

<path d="M188.76400749937503,161.43940007499555 L307.01603833013905,167.35693371664385 A147.20000000000002,147.20000000000002 0 0 1 269.15817536620153,258.7538999266439 L181.35703431077854,179.321415203039 A28.799999999999997,28.799999999999997 0 0 0 188.76400749937503,161.43940007499555 Z" fill="#FFFFFF"/><path d="M179.321415203039,181.35703431077854 L258.7538999266439,269.15817536620153 A147.20000000000002,147.20000000000002 0 0 1 167.35693371664388,307.01603833013905 L161.43940007499555,188.76400749937503 A28.799999999999997,28.799999999999997 0 0 0 179.321415203039,181.35703431077854 Z" fill="#FFFFFF"/><path d="M158.56059992500445,188.76400749937503 L152.64306628335615,307.01603833013905 A147.20000000000002,147.20000000000002 0 0 1 61.24610007335609,269.15817536620153 L140.678584796961,181.35703431077854 A28.799999999999997,28.799999999999997 0 0 0 158.56059992500445,188.76400749937503 Z" fill="#FFFFFF"/><path d="M138.64296568922146,179.321415203039 L50.84182463379848,258.75389992664395 A147.20000000000002,147.20000000000002 0 0 1 12.983961669860946,167.35693371664385 L131.23599250062497,161.43940007499555 A28.799999999999997,28.799999999999997 0 0 0 138.64296568922146,179.321415203039 Z" fill="#FFFFFF"/><path d="M131.23599250062497,158.56059992500448 L12.983961669860946,152.6430662833562 A147.20000000000002,147.20000000000002 0 0 1 50.84182463379847,61.246100073356104 L138.64296568922146,140.678584796961 A28.799999999999997,28.799999999999997 0 0 0 131.23599250062497,158.56059992500448 Z" fill="#FFFFFF"/><path d="M140.678584796961,138.64296568922146 L61.246100073356075,50.841824633798495 A147.20000000000002,147.20000000000002 0 0 1 152.64306628335615,12.983961669860946 L158.56059992500445,131.23599250062497 A28.799999999999997,28.799999999999997 0 0 0 140.678584796961,138.64296568922146 Z" fill="#FFFFFF"/><path d="M161.43940007499552,131.23599250062497 L167.3569337166438,12.983961669860946 A147.20000000000002,147.20000000000002 0 0 1 258.7538999266439,50.84182463379847 L179.321415203039,138.64296568922146 A28.799999999999997,28.799999999999997 0 0 0 161.43940007499552,131.23599250062497 Z" fill="#FFFFFF"/><path d="M181.35703431077854,140.67858479696096 L269.1581753662015,61.24610007335606 A147.20000000000002,147.20000000000002 0 0 1 307.01603833013905,152.64306628335615 L188.76400749937503,158.56059992500445 A28.799999999999997,28.799999999999997 0 0 0 181.35703431077854,140.67858479696096 Z" fill="#FFFFFF"/>
<circle cx="160.0" cy="160.0" r="25.919999999999998" fill="#FFFFFF"/>
</svg>

<text x="340" y="230" font-size="120" font-family="Helvetica,Arial,sans-serif" fill="#FFFFFF" letter-spacing="6">ROUND TABLE</text>
</svg>
