<svg xmlns="http://www.w3.org/2000/svg" width="96" height="96" viewBox="0 0 96 96" shape-rendering="crispEdges">
  <rect x="0" y="0" width="96" height="96" rx="10" fill="#05080f"/>
  <rect x="6" y="6" width="84" height="84" rx="8" fill="#0f172a" stroke="#020617" stroke-width="4"/>
  <rect x="16" y="16" width="64" height="64" fill="#111827"/>
  <rect x="32" y="24" width="8" height="8" fill="#94A3B8"/>
  <rect x="40" y="24" width="8" height="8" fill="#94A3B8"/>
  <rect x="48" y="24" width="8" height="8" fill="#94A3B8"/>
  <rect x="56" y="24" width="8" height="8" fill="#94A3B8"/>
  <rect x="24" y="32" width="8" height="8" fill="#94A3B8"/>
  <rect x="32" y="32" width="8" height="8" fill="#94A3B8"/>
  <rect x="56" y="32" width="8" height="8" fill="#94A3B8"/>
  <rect x="64" y="32" width="8" height="8" fill="#94A3B8"/>
  <rect x="16" y="40" width="8" height="8" fill="#94A3B8"/>
  <rect x="24" y="40" width="8" height="8" fill="#94A3B8"/>
  <rect x="64" y="40" width="8" height="8" fill="#94A3B8"/>
  <rect x="72" y="40" width="8" height="8" fill="#94A3B8"/>
  <rect x="16" y="48" width="8" height="8" fill="#94A3B8"/>
  <rect x="24" y="48" width="8" height="8" fill="#94A3B8"/>
  <rect x="40" y="48" width="8" height="8" fill="#94A3B8"/>
  <rect x="48" y="48" width="8" height="8" fill="#94A3B8"/>
  <rect x="64" y="48" width="8" height="8" fill="#94A3B8"/>
  <rect x="72" y="48" width="8" height="8" fill="#94A3B8"/>
  <rect x="16" y="56" width="8" height="8" fill="#94A3B8"/>
  <rect x="24" y="56" width="8" height="8" fill="#94A3B8"/>
  <rect x="40" y="56" width="8" height="8" fill="#94A3B8"/>
  <rect x="48" y="56" width="8" height="8" fill="#94A3B8"/>
  <rect x="64" y="56" width="8" height="8" fill="#94A3B8"/>
  <rect x="72" y="56" width="8" height="8" fill="#94A3B8"/>
  <rect x="16" y="64" width="8" height="8" fill="#94A3B8"/>
  <rect x="24" y="64" width="8" height="8" fill="#94A3B8"/>
  <rect x="64" y="64" width="8" height="8" fill="#94A3B8"/>
  <rect x="72" y="64" width="8" height="8" fill="#94A3B8"/>
  <rect x="24" y="72" width="8" height="8" fill="#94A3B8"/>
  <rect x="32" y="72" width="8" height="8" fill="#94A3B8"/>
  <rect x="56" y="72" width="8" height="8" fill="#94A3B8"/>
  <rect x="64" y="72" width="8" height="8" fill="#94A3B8"/>
  <rect x="16" y="16" width="64" height="64" fill="none" stroke="#0b1220" stroke-width="2"/>
</svg>
